<?xml version="1.0" encoding="UTF-8" standalone="no"?>
<!DOCTYPE svg PUBLIC "-//W3C//DTD SVG 1.1//EN" "http://www.w3.org/Graphics/SVG/1.1/DTD/svg11.dtd">
<!-- Created with Vectornator (http://vectornator.io/) -->
<svg height="100%" stroke-miterlimit="10" style="fill-rule:nonzero;clip-rule:evenodd;stroke-linecap:round;stroke-linejoin:round;" version="1.1" viewBox="0 0 475 475" width="100%" xml:space="preserve" xmlns="http://www.w3.org/2000/svg" xmlns:xlink="http://www.w3.org/1999/xlink">
<defs/>
<g id="Ebene-1">
<path d="M373.706 287.527L373.706 317.54C373.706 334.047 360.2 347.553 343.693 347.553L238.646 347.553L238.646 377.566L268.659 377.566L268.659 407.58L148.606 407.58L148.606 377.566L178.62 377.566L178.62 347.553L73.5731 347.553C57.0658 347.553 43.5598 334.047 43.5598 317.54L43.5598 137.46C43.5598 120.953 57.0658 107.447 73.5731 107.447L208.633 107.447L208.633 137.46L73.5731 137.46L73.5731 317.54L343.693 317.54L343.693 287.527L373.706 287.527Z" fill="#ffffff" fill-rule="nonzero" opacity="1" stroke="none"/>
<path d="M306.943 101.644L299.34 109.247L310.745 120.652C305.993 123.504 302.191 128.256 300.29 133.958L279.381 133.958L279.381 143.463L298.39 143.463L298.39 152.967L279.381 152.967L279.381 162.471L298.39 162.471L298.39 171.975L279.381 171.975L279.381 181.479L300.29 181.479C304.092 192.885 314.547 200.488 326.902 200.488C339.258 200.488 349.712 192.885 353.514 181.479L374.423 181.479L374.423 171.975L355.415 171.975L355.415 162.471L374.423 162.471L374.423 152.967L355.415 152.967L355.415 143.463L374.423 143.463L374.423 133.958L353.514 133.958C351.613 128.256 347.811 123.504 343.059 119.702L354.464 108.297L347.811 101.644L334.506 114.95L326.902 114.95C325.001 114.95 322.15 114.95 320.249 115.9L306.943 101.644M317.398 143.463L336.406 143.463L336.406 152.967L317.398 152.967L317.398 143.463M317.398 162.471L336.406 162.471L336.406 171.975L317.398 171.975L317.398 162.471M412.44 143.463C412.44 195.736 376.324 245.158 326.902 257.513C277.48 245.158 241.364 195.736 241.364 143.463L241.364 86.4372L326.902 48.4203L412.44 86.4372L412.44 143.463M326.902 238.505C363.018 229.001 393.432 186.232 393.432 145.363L393.432 98.7927L326.902 69.3296L260.373 98.7927L260.373 145.363C260.373 186.232 290.786 229.001 326.902 238.505Z" fill="#ffffff" fill-rule="nonzero" opacity="1" stroke="none"/>
</g>
</svg>
